<svg width="34" height="34" viewBox="0 0 34 34" fill="none" xmlns="http://www.w3.org/2000/svg">
<path d="M17 0C7.61175 0 0 7.73094 0 17.2662C0 25.3568 5.48533 32.1266 12.8803 34C12.801 33.7669 12.75 33.4964 12.75 33.1612V30.2101C12.0601 30.2101 10.9041 30.2101 10.6137 30.2101C9.45058 30.2101 8.41642 29.7022 7.91492 28.7583C7.35817 27.7094 7.26183 26.105 5.882 25.1237C5.47258 24.7971 5.78425 24.4245 6.256 24.4748C7.12725 24.7252 7.84975 25.3324 8.52975 26.2331C9.20692 27.1353 9.52567 27.3396 10.7907 27.3396C11.4042 27.3396 12.3222 27.3036 13.1863 27.1655C13.651 25.9669 14.4542 24.8633 15.436 24.3424C9.775 23.7511 7.07342 20.8906 7.07342 17.0072C7.07342 15.3353 7.77467 13.718 8.96608 12.3554C8.57508 11.0029 8.0835 8.2446 9.11625 7.19424C11.6634 7.19424 13.2033 8.87194 13.5731 9.32518C14.8424 8.88345 16.2364 8.63309 17.7013 8.63309C19.1689 8.63309 20.5686 8.88345 21.8407 9.32806C22.2062 8.8777 23.7476 7.19424 26.3004 7.19424C27.3374 8.24604 26.8402 11.0158 26.4449 12.3655C27.6292 13.7252 28.3263 15.3381 28.3263 17.0072C28.3263 20.8878 25.6289 23.7468 19.9764 24.341C21.5319 25.1655 22.6667 27.482 22.6667 29.2273V33.1612C22.6667 33.3108 22.6341 33.4187 22.6171 33.5468C29.2414 31.1885 34 24.8 34 17.2662C34 7.73094 26.3882 0 17 0Z" fill="#303030"/>
</svg>
