<svg width="34" height="34" viewBox="0 0 34 34" fill="none" xmlns="http://www.w3.org/2000/svg">
<path d="M9.9139 0C4.44698 0 0 4.4511 0 9.91943V24.0861C0 29.553 4.4511 34 9.91943 34H24.0861C29.553 34 34 29.5489 34 24.0806V9.9139C34 4.44698 29.5489 0 24.0806 0H9.9139ZM26.9167 5.66667C27.6987 5.66667 28.3333 6.30133 28.3333 7.08333C28.3333 7.86533 27.6987 8.5 26.9167 8.5C26.1347 8.5 25.5 7.86533 25.5 7.08333C25.5 6.30133 26.1347 5.66667 26.9167 5.66667ZM17 8.5C21.6877 8.5 25.5 12.3122 25.5 17C25.5 21.6877 21.6877 25.5 17 25.5C12.3122 25.5 8.5 21.6877 8.5 17C8.5 12.3122 12.3122 8.5 17 8.5ZM17 11.3333C15.4971 11.3333 14.0558 11.9304 12.9931 12.9931C11.9304 14.0558 11.3333 15.4971 11.3333 17C11.3333 18.5029 11.9304 19.9442 12.9931 21.0069C14.0558 22.0696 15.4971 22.6667 17 22.6667C18.5029 22.6667 19.9442 22.0696 21.0069 21.0069C22.0696 19.9442 22.6667 18.5029 22.6667 17C22.6667 15.4971 22.0696 14.0558 21.0069 12.9931C19.9442 11.9304 18.5029 11.3333 17 11.3333Z" fill="#303030"/>
</svg>
