<svg width="34" height="34" viewBox="0 0 34 34" fill="none" xmlns="http://www.w3.org/2000/svg">
<path d="M7.3913 34H0V10.8182H7.3913V34ZM3.69713 7.72727C1.6527 7.72727 0 5.99482 0 3.86209C0 1.72936 1.65565 0 3.69713 0C5.73417 0 7.3913 1.73245 7.3913 3.86209C7.3913 5.99482 5.73417 7.72727 3.69713 7.72727ZM34 34H26.894V22.7182C26.894 20.0275 26.8452 16.5673 23.1998 16.5673C19.4997 16.5673 18.9306 19.4975 18.9306 22.5235V34H11.8261V10.8012H18.6468V13.9709H18.7429C19.6919 12.1473 22.0113 10.2247 25.4704 10.2247C32.6696 10.2247 34 15.0295 34 21.2763V34Z" fill="#303030"/>
</svg>
