<?xml version="1.0" encoding="UTF-8" standalone="no"?>
<!DOCTYPE svg PUBLIC "-//W3C//DTD SVG 1.1//EN" "http://www.w3.org/Graphics/SVG/1.1/DTD/svg11.dtd">
<svg xmlns="http://www.w3.org/2000/svg" version="1.1" viewBox="0.00 0.00 254.00 84.00">
<path fill="#303030" d="
  M 47.19 60.93
  L 43.75 64.11
  A 0.31 0.31 0.0 0 1 43.33 64.11
  L 39.88 60.91
  A 0.31 0.31 0.0 0 1 39.78 60.68
  L 39.77 17.19
  A 0.31 0.31 0.0 0 0 39.25 16.96
  L 20.12 34.91
  A 0.31 0.31 0.0 0 0 20.02 35.13
  L 20.02 59.60
  A 0.31 0.31 0.0 0 1 19.50 59.82
  L 1.11 42.61
  A 0.31 0.31 0.0 0 1 1.11 42.15
  L 43.32 2.56
  A 0.31 0.31 0.0 0 1 43.74 2.56
  L 85.98 42.19
  A 0.31 0.31 0.0 0 1 85.98 42.65
  L 67.65 59.83
  A 0.31 0.31 0.0 0 1 67.13 59.60
  L 67.15 35.16
  A 0.31 0.31 0.0 0 0 67.05 34.94
  L 47.81 16.95
  A 0.31 0.31 0.0 0 0 47.29 17.17
  L 47.29 60.70
  A 0.31 0.31 0.0 0 1 47.19 60.93
  Z"
/>
<path fill="#303030" d="
  M 99.90 27.49
  L 99.88 40.50
  Q 99.88 42.25 98.12 42.22
  L 97.51 42.21
  Q 95.99 42.17 95.99 40.66
  L 95.99 21.25
  A 1.69 1.69 0.0 0 1 97.01 19.70
  C 100.44 18.19 102.24 19.54 103.27 22.91
  Q 105.10 28.88 106.84 34.33
  Q 107.30 35.80 107.74 34.33
  Q 109.48 28.52 111.28 22.49
  C 112.21 19.37 113.97 18.55 117.01 19.54
  Q 118.41 20.00 118.41 21.47
  L 118.41 40.48
  Q 118.41 42.17 116.72 42.21
  L 116.20 42.23
  Q 114.37 42.27 114.37 40.45
  L 114.37 26.61
  Q 114.37 25.98 113.81 26.29
  Q 113.74 26.33 113.58 26.82
  Q 111.33 33.91 109.01 41.09
  A 1.59 1.59 0.0 0 1 107.99 42.11
  C 106.40 42.62 105.75 41.85 105.27 40.41
  Q 102.99 33.63 100.96 27.33
  Q 99.90 24.02 99.90 27.49
  Z"
/>
<path fill="#303030" d="
  M 129.92 23.93
  L 123.91 41.34
  Q 123.34 42.99 121.72 42.36
  L 121.23 42.17
  Q 119.66 41.56 120.22 39.98
  L 127.13 20.49
  Q 127.32 19.96 127.86 19.77
  C 130.32 18.88 132.98 18.30 134.07 21.46
  Q 137.42 31.12 140.64 40.32
  Q 140.97 41.25 140.13 41.79
  Q 138.59 42.78 137.54 42.25
  Q 136.84 41.89 136.41 40.36
  Q 134.07 31.99 130.62 23.90
  Q 130.24 23.00 129.92 23.93
  Z"
/>
<path fill="#303030" d="
  M 150.49 35.24
  L 155.32 20.66
  Q 155.94 18.80 157.85 19.25
  L 158.23 19.34
  A 1.37 1.36 -74.2 0 1 159.21 21.10
  Q 155.89 31.11 152.57 41.27
  Q 152.25 42.23 151.15 42.23
  C 149.80 42.24 148.14 42.37 147.64 40.80
  Q 144.55 31.08 141.22 21.31
  A 1.52 1.51 69.1 0 1 142.06 19.43
  L 142.32 19.32
  Q 144.32 18.47 145.01 20.54
  L 149.89 35.24
  Q 150.19 36.16 150.49 35.24
  Z"
/>
<rect fill="#303030" x="-1.99" y="-11.52" transform="translate(201.76,30.71) rotate(-0.1)" width="3.98" height="23.04" rx="1.67"/>
<path fill="#303030" d="
  M 233.54 28.80
  L 241.64 19.91
  Q 242.97 18.44 244.40 19.81
  L 244.74 20.14
  A 1.28 1.27 43.2 0 1 244.80 21.93
  L 233.08 34.77
  A 1.19 1.19 0.0 0 0 232.77 35.57
  L 232.78 40.71
  Q 232.78 42.19 231.29 42.21
  L 230.57 42.22
  Q 228.89 42.25 228.89 40.57
  L 228.89 20.93
  Q 228.89 19.00 230.82 19.16
  L 231.30 19.19
  A 1.62 1.60 -87.7 0 1 232.77 20.80
  L 232.77 28.50
  A 0.44 0.44 0.0 0 0 233.54 28.80
  Z"
/>
<path fill="#303030" d="
  M 166.20 39.20
  L 174.85 39.20
  Q 176.26 39.20 176.26 40.60
  L 176.26 40.99
  Q 176.25 42.23 175.01 42.23
  L 163.49 42.23
  A 1.75 1.74 0.0 0 1 161.74 40.49
  L 161.74 21.27
  A 1.74 1.73 0.0 0 1 163.48 19.54
  L 174.22 19.54
  Q 175.63 19.54 175.69 20.95
  L 175.71 21.33
  Q 175.76 22.56 174.54 22.56
  L 166.20 22.56
  Q 165.70 22.56 165.70 23.05
  L 165.70 38.70
  Q 165.70 39.20 166.20 39.20
  Z"
/>
<path fill="#303030" d="
  M 183.17 23.32
  L 183.17 40.70
  Q 183.17 42.85 181.04 42.58
  L 180.61 42.53
  A 1.68 1.67 -86.5 0 1 179.14 40.86
  L 179.14 21.50
  Q 179.14 19.60 181.04 19.56
  Q 185.76 19.46 190.48 19.68
  C 193.57 19.82 194.97 21.47 195.06 24.58
  C 195.15 27.65 195.76 30.69 192.55 32.39
  Q 192.06 32.65 192.36 33.12
  L 196.80 39.99
  Q 197.65 41.30 196.29 42.08
  L 195.81 42.35
  Q 194.34 43.18 193.44 41.75
  L 188.19 33.47
  A 1.05 1.04 -18.7 0 0 187.21 32.99
  Q 186.19 33.09 185.21 32.83
  A 0.94 0.94 0.0 0 1 184.55 32.21
  Q 184.21 31.18 184.80 30.28
  A 0.95 0.95 0.0 0 1 185.60 29.84
  L 189.48 29.81
  A 1.78 1.78 0.0 0 0 191.25 28.03
  L 191.25 24.52
  Q 191.24 22.54 189.27 22.55
  L 183.93 22.56
  Q 183.17 22.56 183.17 23.32
  Z"
/>
<path fill="#303030" d="
  M 213.34 22.68
  A 1.51 1.51 0.0 0 0 212.05 24.17
  L 212.04 37.75
  A 1.46 1.46 0.0 0 0 213.51 39.21
  L 219.48 39.20
  A 1.49 1.48 0.2 0 0 220.96 37.74
  L 221.00 35.48
  A 1.07 1.06 73.0 0 1 221.45 34.63
  Q 222.77 33.71 224.18 34.54
  Q 224.59 34.78 224.71 35.25
  C 225.96 40.51 222.75 42.19 218.03 42.25
  C 212.16 42.32 208.14 42.91 208.14 35.69
  Q 208.15 30.08 208.23 24.50
  C 208.32 18.34 214.69 19.49 219.50 19.65
  Q 225.61 19.86 224.78 26.07
  Q 224.58 27.60 222.74 27.63
  A 1.67 1.66 -1.9 0 1 221.04 26.05
  C 220.97 24.56 221.16 22.45 218.92 22.52
  C 217.04 22.58 215.08 22.42 213.34 22.68
  Z"
/>
<ellipse fill="#303030" cx="0.00" cy="0.00" transform="translate(170.76,30.17) rotate(-0.5)" rx="2.69" ry="2.42"/>
<rect fill="#303030" x="-1.80" y="-6.51" transform="translate(241.77,36.26) rotate(-36.0)" width="3.60" height="13.02" rx="1.61"/>
<path fill="#303030" d="
  M 43.74 72.44
  L 53.47 63.37
  A 0.31 0.31 0.0 0 0 53.57 63.15
  L 53.56 31.40
  A 0.31 0.31 0.0 0 1 54.08 31.18
  L 60.67 37.31
  A 0.31 0.31 0.0 0 1 60.77 37.53
  L 60.77 66.18
  A 0.31 0.31 0.0 0 1 60.67 66.40
  L 43.77 82.25
  A 0.31 0.31 0.0 0 1 43.35 82.25
  L 26.39 66.36
  A 0.31 0.31 0.0 0 1 26.29 66.14
  L 26.29 37.61
  A 0.31 0.31 0.0 0 1 26.39 37.39
  L 32.97 31.17
  A 0.31 0.31 0.0 0 1 33.49 31.40
  L 33.49 63.08
  A 0.31 0.31 0.0 0 0 33.59 63.30
  L 43.32 72.44
  A 0.31 0.31 0.0 0 0 43.74 72.44
  Z"
/>
<circle fill="#303030" cx="130.33" cy="35.36" r="2.35"/>
<path fill="#303030" d="
  M 134.29 53.80
  A 0.74 0.74 0.0 0 0 133.55 53.06
  L 129.24 53.04
  Q 128.52 53.04 128.52 53.76
  L 128.51 65.49
  Q 128.51 66.90 127.10 67.00
  L 126.62 67.03
  A 1.04 1.04 0.0 0 1 125.51 65.99
  L 125.52 51.28
  A 0.72 0.71 -0.4 0 1 126.23 50.57
  L 134.22 50.53
  A 3.21 3.21 0.0 0 1 137.45 53.74
  Q 137.45 58.33 137.34 63.50
  C 137.26 67.56 133.32 67.11 130.14 66.98
  A 0.94 0.94 0.0 0 1 129.24 66.01
  L 129.25 65.60
  A 1.17 1.17 0.0 0 1 130.40 64.46
  L 133.71 64.41
  A 0.59 0.58 90.0 0 0 134.29 63.82
  L 134.29 53.80
  Z"
/>
<path fill="#303030" d="
  M 143.14 53.46
  L 143.14 63.83
  A 0.62 0.62 0.0 0 0 143.76 64.45
  L 149.51 64.45
  Q 150.57 64.45 150.58 65.51
  L 150.58 65.88
  Q 150.59 67.00 149.47 67.00
  L 141.38 67.00
  A 1.37 1.37 0.0 0 1 140.01 65.63
  L 140.02 52.01
  A 1.47 1.47 0.0 0 1 141.49 50.54
  L 149.01 50.54
  Q 150.19 50.54 150.21 51.72
  L 150.21 52.08
  Q 150.22 53.03 149.27 53.03
  L 143.54 53.05
  Q 143.13 53.05 143.14 53.46
  Z"
/>
<path fill="#303030" d="
  M 155.52 53.79
  L 155.52 56.66
  A 0.70 0.69 0.4 0 0 156.21 57.35
  L 161.31 57.38
  A 3.12 3.11 0.2 0 1 164.40 60.48
  L 164.42 63.45
  Q 164.44 66.44 161.47 66.81
  C 157.36 67.33 151.05 67.86 152.63 61.59
  Q 152.76 61.09 153.27 61.02
  Q 154.00 60.91 154.73 61.07
  A 0.87 0.87 0.0 0 1 155.41 61.87
  L 155.55 63.86
  A 0.56 0.55 -1.1 0 0 156.10 64.38
  L 160.50 64.47
  A 0.72 0.72 0.0 0 0 161.24 63.75
  L 161.20 60.51
  A 0.70 0.70 0.0 0 0 160.50 59.81
  L 155.72 59.76
  A 3.30 3.29 0.3 0 1 152.45 56.47
  L 152.45 53.99
  Q 152.45 50.94 155.49 50.66
  C 159.59 50.29 165.60 49.80 164.29 55.49
  A 1.00 1.00 0.0 0 1 163.29 56.27
  L 162.33 56.24
  A 1.10 1.10 0.0 0 1 161.26 55.09
  Q 161.29 54.34 161.07 53.64
  Q 160.87 53.01 160.21 53.02
  L 156.20 53.10
  Q 155.52 53.11 155.52 53.79
  Z"
/>
<rect fill="#303030" x="-1.57" y="-8.22" transform="translate(168.82,58.75) rotate(-0.1)" width="3.14" height="16.44" rx="1.23"/>
<path fill="#303030" d="
  M 181.30 60.07
  Q 180.32 61.74 178.47 61.12
  A 1.67 1.67 0.0 0 1 177.54 58.71
  C 178.44 57.14 180.22 57.32 181.19 58.76
  Q 181.53 59.26 181.96 58.84
  Q 182.27 58.54 182.67 58.43
  Q 184.98 57.79 184.93 60.18
  L 184.84 64.38
  Q 184.83 64.82 184.57 65.17
  Q 183.20 66.98 181.75 67.00
  C 178.67 67.03 173.24 68.07 173.19 63.26
  Q 173.14 58.21 173.17 53.68
  A 3.13 3.13 0.0 0 1 176.20 50.57
  C 179.55 50.46 185.69 49.60 184.76 55.27
  Q 184.52 56.75 183.04 56.56
  L 182.56 56.50
  A 1.05 1.05 0.0 0 1 181.67 55.26
  C 182.25 52.26 178.47 52.89 176.92 53.16
  Q 176.24 53.28 176.24 53.96
  L 176.24 63.53
  Q 176.24 64.18 176.88 64.28
  Q 179.11 64.65 181.34 64.29
  Q 181.87 64.20 181.87 63.67
  L 181.90 60.24
  Q 181.91 59.03 181.30 60.07
  Z"
/>
<path fill="#303030" d="
  M 196.56 61.12
  Q 197.12 62.31 197.12 60.99
  L 197.09 51.81
  Q 197.09 50.45 198.44 50.53
  L 199.06 50.57
  Q 200.22 50.64 200.22 51.81
  L 200.23 65.50
  Q 200.23 65.94 199.88 66.21
  C 197.42 68.19 195.74 66.74 194.74 64.29
  Q 193.13 60.35 191.57 56.83
  Q 190.76 55.00 190.76 57.00
  L 190.76 65.54
  Q 190.76 67.09 189.21 67.00
  L 188.69 66.97
  A 1.03 1.03 0.0 0 1 187.72 65.94
  L 187.72 51.76
  Q 187.72 51.29 188.12 51.06
  C 190.92 49.39 192.27 50.94 193.28 53.48
  Q 194.91 57.59 196.56 61.12
  Z"
/>
<path fill="#303030" d="
  M 210.95 53.06
  L 206.54 53.10
  Q 205.93 53.10 205.92 53.71
  L 205.85 56.17
  A 1.14 1.14 0.0 0 0 207.00 57.34
  C 209.77 57.33 214.41 56.48 214.72 60.50
  C 214.87 62.43 215.15 66.70 212.14 66.91
  C 207.70 67.22 202.41 68.02 202.73 62.27
  Q 202.79 61.22 203.81 61.01
  Q 204.63 60.83 205.32 61.18
  Q 205.74 61.40 205.78 61.87
  L 205.90 63.58
  A 0.77 0.76 2.9 0 0 206.54 64.28
  Q 208.89 64.68 211.24 64.28
  Q 211.72 64.19 211.72 63.70
  L 211.71 60.77
  A 0.95 0.95 0.0 0 0 210.77 59.82
  C 208.54 59.79 202.99 60.49 202.79 57.02
  C 202.63 54.01 202.46 50.90 206.07 50.60
  C 210.13 50.27 215.91 49.88 214.70 55.52
  A 0.95 0.94 -82.5 0 1 213.73 56.27
  L 212.61 56.22
  A 0.89 0.89 0.0 0 1 211.75 55.36
  L 211.67 53.75
  A 0.72 0.72 0.0 0 0 210.95 53.06
  Z"
/>
<circle fill="#303030" cx="146.56" cy="58.40" r="1.92"/>
</svg>
